<?xml version="1.0" standalone="no"?>
<!DOCTYPE svg PUBLIC "-//W3C//DTD SVG 20010904//EN"
 "http://www.w3.org/TR/2001/REC-SVG-20010904/DTD/svg10.dtd">
<svg version="1.0" xmlns="http://www.w3.org/2000/svg"
 width="300.000000pt" height="300.000000pt" viewBox="0 0 300.000000 300.000000"
 preserveAspectRatio="xMidYMid meet">
<metadata>
Created by potrace 1.14, written by Peter Selinger 2001-2017
</metadata>
<g transform="translate(0.000000,300.000000) scale(0.100000,-0.100000)"
fill="#000000" stroke="none">
<path d="M0 1500 l0 -1500 1500 0 1500 0 0 1500 0 1500 -1500 0 -1500 0 0
-1500z m864 838 c6 -4 35 -6 64 -5 45 2 54 5 58 24 3 12 3 26 0 32 -4 5 -2 12
4 16 5 3 10 0 10 -8 0 -8 7 -17 15 -21 8 -3 15 -10 15 -15 0 -6 -7 -8 -15 -5
-9 4 -15 0 -15 -9 0 -12 14 -14 68 -13 74 3 102 -2 102 -15 0 -5 -28 -9 -63
-9 -61 0 -87 -11 -87 -36 0 -12 64 -5 87 9 6 4 14 1 17 -5 3 -9 9 -7 20 6 14
17 16 17 16 4 0 -13 10 -16 48 -15 43 2 47 0 46 -20 0 -13 3 -23 8 -23 4 0 8
5 8 10 0 6 5 10 11 10 5 0 8 -4 5 -9 -3 -4 3 -16 14 -26 16 -14 17 -20 8 -27
-10 -6 -10 -8 0 -8 6 0 12 -4 12 -9 0 -5 -11 -8 -24 -8 -14 0 -23 4 -20 11 5
13 -125 12 -135 -1 -9 -13 -44 -16 -36 -4 3 7 -3 11 -17 12 -13 0 -31 2 -41 4
-23 4 -33 -20 -15 -38 18 -18 88 -18 88 0 0 10 5 11 18 4 9 -5 29 -8 45 -6 15
2 27 0 27 -4 0 -14 75 -7 81 8 4 11 8 10 22 -3 9 -10 17 -21 17 -26 0 -13 -61
-24 -69 -12 -7 11 -81 11 -81 0 0 -3 -8 -8 -17 -11 -12 -2 -7 -7 17 -14 l35
-11 -40 -2 c-22 -1 -43 -2 -47 -1 -5 0 -8 -4 -8 -11 0 -9 -3 -9 -12 0 -17 17
-41 15 -34 -3 3 -8 1 -15 -4 -15 -5 0 -4 -12 2 -27 17 -39 17 -39 34 -15 8 12
21 22 27 21 9 0 9 -2 0 -6 -18 -7 -16 -23 2 -23 8 0 15 -4 15 -10 0 -5 5 -10
10 -10 6 0 10 5 10 10 0 6 9 19 20 30 20 20 20 20 26 -6 l6 -25 20 20 c10 12
24 21 31 20 9 0 9 -2 0 -6 -14 -5 -18 -33 -5 -33 18 0 72 32 73 43 0 7 6 -1
13 -17 10 -22 14 -25 19 -12 8 20 27 21 27 1 0 -23 32 -18 62 10 l27 24 9 -27
c7 -17 11 -21 11 -9 1 9 8 17 16 17 8 0 15 5 15 12 0 6 3 8 6 5 4 -4 1 -13 -6
-22 -17 -20 -5 -32 15 -15 11 9 15 9 15 1 0 -7 12 -1 27 13 20 19 29 22 35 13
4 -7 2 -13 -7 -15 -15 -3 -21 -22 -7 -22 18 1 31 18 37 51 7 36 6 37 -23 35
-17 -1 -34 -4 -37 -8 -4 -4 -13 -4 -21 -1 -11 4 -11 8 2 20 31 32 -8 45 -89
29 -16 -2 -35 -2 -43 1 -12 4 -12 8 3 19 14 10 15 15 6 25 -6 6 -9 18 -6 25 3
9 -3 14 -18 15 -17 1 -19 3 -6 6 10 3 17 14 17 27 0 19 -5 24 -27 24 -16 0
-37 -5 -48 -11 -19 -10 -19 -9 -5 9 8 10 18 21 22 24 3 3 112 5 242 4 196 -1
236 1 240 13 3 8 0 20 -7 26 -16 16 -79 19 -88 5 -5 -8 -11 -9 -21 -1 -17 14
-111 13 -120 -1 -6 -8 -10 -8 -15 0 -10 15 -123 15 -123 1 0 -7 -4 -7 -12 1
-7 7 -20 12 -31 12 -10 0 -17 5 -15 12 3 8 19 12 43 10 36 -4 37 -3 33 22 -3
15 -1 29 3 32 5 3 9 -1 9 -9 0 -8 12 -22 26 -32 28 -18 43 -14 28 8 -5 7 0 3
11 -10 20 -22 42 -32 30 -14 -3 5 -1 12 5 16 5 3 10 0 10 -8 0 -11 54 -13 335
-10 232 3 335 1 335 -6 0 -6 -12 -11 -27 -11 -43 0 -58 -14 -38 -34 21 -20 25
-20 41 2 13 16 15 16 29 -2 8 -11 15 -14 15 -7 0 7 4 10 9 7 5 -3 11 1 15 9 3
8 12 15 21 15 8 0 15 7 15 16 0 14 2 14 16 3 15 -12 14 -14 -5 -23 -12 -5 -21
-13 -21 -18 0 -12 38 -10 45 2 5 8 11 8 20 0 15 -12 36 -10 48 5 4 6 10 6 15
-2 4 -6 19 -13 32 -15 41 -6 77 -48 84 -97 5 -35 3 -42 -6 -33 -17 17 -28 15
-21 -5 4 -11 3 -14 -5 -9 -7 4 -12 2 -12 -3 0 -19 -20 -12 -21 7 -1 16 -11 2
-10 -15 0 -5 -10 -13 -22 -20 -20 -10 -18 -11 18 -11 75 2 95 -2 95 -17 0 -10
-11 -15 -37 -16 -21 -1 -41 -1 -45 0 -5 0 -8 -6 -8 -14 0 -14 -3 -14 -22 -1
-13 7 -51 14 -84 15 -51 1 -63 -2 -68 -16 -7 -17 -8 -17 -17 -1 -13 23 -159
22 -159 -2 -1 -12 -3 -12 -11 3 -11 19 -59 24 -59 6 0 -7 -10 -9 -25 -7 -14 3
-25 2 -25 -3 0 -16 26 -23 83 -22 52 1 58 -1 54 -17 -3 -12 2 -20 14 -23 11
-3 19 1 22 12 3 12 7 9 17 -12 12 -24 11 -29 -6 -41 -10 -8 -22 -12 -26 -10
-5 3 -8 -2 -8 -10 0 -12 -9 -15 -32 -14 -22 2 -32 -1 -31 -9 2 -7 -4 -13 -12
-13 -8 0 -16 7 -16 15 -1 8 -2 21 -3 28 0 6 -12 12 -26 12 -18 0 -24 -5 -22
-17 2 -10 -2 -18 -7 -18 -6 0 -15 8 -20 18 -6 9 -11 11 -11 5 0 -7 -7 -13 -15
-13 -8 0 -15 -7 -15 -15 0 -8 -4 -15 -10 -15 -5 0 -10 7 -10 15 0 9 -10 15
-22 16 -19 1 -19 2 -5 6 18 5 18 5 0 20 -10 8 -13 12 -6 9 6 -4 16 1 21 10 7
13 14 14 27 6 13 -7 26 -7 42 1 45 20 27 32 -57 36 -30 2 -59 5 -63 8 -5 3
-13 0 -17 -7 -4 -7 -13 -9 -20 -5 -16 10 -99 9 -124 0 -10 -5 -21 -3 -25 2 -9
16 -71 3 -71 -14 0 -12 3 -13 14 -4 11 9 16 9 21 0 6 -8 10 -8 16 2 6 10 12 9
29 -6 26 -24 15 -35 -38 -38 -44 -2 -66 -27 -43 -50 6 -6 11 -19 11 -29 0 -14
-6 -16 -30 -11 -19 3 -30 1 -30 -6 0 -7 -9 -9 -25 -5 -18 4 -25 2 -25 -9 0
-11 12 -14 53 -12 86 3 87 4 87 26 0 18 2 19 15 9 8 -7 15 -19 15 -27 0 -8 4
-11 10 -8 5 3 18 1 29 -5 13 -7 22 -7 26 0 4 6 10 8 15 5 18 -11 60 7 60 26 0
11 7 19 16 19 8 0 13 -4 9 -9 -3 -5 -1 -12 5 -16 6 -4 8 -10 5 -15 -7 -11 53
-18 64 -7 12 12 31 0 31 -19 0 -8 -10 -15 -22 -15 -26 -2 -79 -6 -90 -8 -5 -1
-8 -8 -8 -17 0 -13 7 -15 38 -9 20 4 38 11 40 16 2 5 12 4 24 -2 11 -6 22 -8
25 -5 4 3 12 1 20 -5 10 -9 13 -8 13 0 0 7 5 9 13 4 15 -10 87 -13 87 -3 0 4
15 6 33 5 17 -2 32 -4 32 -5 0 -2 24 -4 53 -5 28 -1 52 1 52 5 0 7 54 6 70 -1
15 -6 100 -3 100 3 0 4 15 6 33 4 17 -3 32 -5 32 -6 0 -8 46 -7 50 0 10 16 25
1 25 -25 0 -19 -6 -23 -40 -27 -22 -2 -40 -1 -40 2 0 7 -328 5 -336 -3 -3 -3
-3 -11 1 -17 5 -9 10 -9 18 -1 16 16 24 14 29 -7 5 -18 -19 -49 -29 -38 -3 3
-12 1 -19 -5 -9 -7 -19 -7 -32 0 -11 6 -23 7 -27 3 -5 -4 -5 -1 -1 6 9 15 -29
13 -53 -2 -10 -6 -12 -5 -7 2 4 7 2 12 -3 12 -6 0 -11 -5 -11 -11 0 -6 -9 -9
-20 -6 -11 3 -23 1 -26 -4 -3 -5 -15 -4 -27 3 -27 14 -104 20 -112 9 -3 -5
-15 -7 -27 -3 -14 3 -19 2 -14 -6 4 -7 3 -12 -3 -12 -15 0 -29 30 -24 51 6 21
7 21 73 20 44 0 44 0 11 9 -18 4 -41 6 -50 5 -9 -2 -23 -4 -31 -4 -12 -1 -16
-16 -18 -66 l-3 -65 30 2 c17 1 31 6 31 10 0 5 9 4 21 -2 11 -7 28 -8 37 -4 9
4 20 6 25 6 4 -1 7 5 7 13 0 12 13 15 56 15 40 0 55 -3 52 -12 -3 -7 -11 -13
-19 -13 -8 0 -14 -9 -14 -20 1 -17 -6 -20 -43 -20 -27 0 -47 -6 -52 -15 -9
-14 -14 -7 -11 13 0 4 -28 7 -64 7 l-65 0 -17 -37 c-9 -21 -19 -41 -20 -45 -2
-3 12 -5 31 -3 20 2 36 -1 36 -6 0 -6 6 -7 12 -3 7 5 38 8 70 8 44 1 58 -2 58
-13 0 -11 4 -9 16 5 11 13 17 15 20 6 3 -6 10 -10 15 -7 5 3 33 8 64 10 43 2
57 0 65 -13 8 -15 11 -15 20 -2 8 13 10 13 10 1 0 -12 2 -12 13 1 6 8 21 18
33 20 18 5 21 1 20 -23 l-1 -28 -260 -1 c-158 0 -263 -4 -269 -10 -7 -7 7 -10
39 -10 36 0 46 -3 35 -10 -8 -5 -23 -7 -32 -4 -11 3 -22 -3 -30 -15 -17 -28
-28 -27 -20 2 5 21 4 21 -29 -6 -19 -15 -61 -46 -94 -67 -43 -28 -54 -40 -40
-41 11 -1 43 -2 70 -4 109 -5 102 -2 100 -35 -1 -16 2 -30 7 -30 4 0 8 7 8 16
0 12 7 15 26 11 18 -3 24 -1 20 8 -7 19 27 25 43 7 12 -12 12 -15 0 -23 -8 -5
-22 -9 -31 -9 -10 0 -18 -5 -18 -10 0 -6 -6 -10 -12 -9 -34 4 -58 -2 -58 -16
0 -13 -3 -13 -20 -3 -11 7 -16 14 -10 16 5 2 10 8 10 14 0 7 -21 9 -60 5 -33
-3 -60 -1 -60 4 0 4 -7 6 -16 2 -13 -5 -13 -7 -2 -14 10 -7 9 -9 -4 -9 -10 0
-18 -5 -18 -11 0 -5 -4 -7 -10 -4 -5 3 -10 -3 -10 -14 0 -12 -6 -21 -12 -21
-7 0 -2 -7 10 -16 14 -9 30 -13 44 -8 11 3 38 6 60 6 34 -1 38 2 38 24 0 15 6
24 15 24 17 0 19 -12 5 -26 -18 -18 35 -40 63 -26 12 7 37 13 55 14 23 2 32 7
32 20 0 10 5 18 10 18 6 0 10 10 10 21 0 18 2 20 16 8 14 -11 15 -9 9 24 -7
36 -7 37 25 37 23 0 33 -5 37 -20 3 -11 12 -20 20 -20 9 0 13 6 10 14 -3 8 1
17 9 20 29 11 53 6 58 -11 4 -15 5 -15 4 2 -1 43 1 48 16 36 10 -8 16 -9 21
-1 8 13 45 13 45 -1 0 -5 4 -8 9 -4 5 3 12 1 15 -4 3 -5 -8 -11 -26 -15 -46
-9 -78 -56 -38 -56 11 0 20 6 20 14 0 9 7 12 20 9 15 -4 19 -2 15 9 -4 10 1
17 15 21 11 3 19 11 18 18 -2 10 28 14 137 15 77 1 146 3 153 3 6 1 12 9 12
19 0 9 8 26 16 37 15 20 16 20 29 1 11 -15 26 -18 71 -17 32 0 54 -2 51 -6 -4
-3 -2 -12 4 -20 9 -10 8 -17 -1 -28 -13 -16 -60 -17 -60 -1 0 5 -3 6 -6 3 -4
-4 -1 -13 6 -22 7 -8 10 -22 6 -30 -3 -10 1 -15 12 -15 9 0 25 -7 35 -14 18
-14 17 -15 -3 -21 -12 -4 -24 -4 -27 -1 -3 3 -12 -2 -19 -12 -12 -15 -13 -15
-14 -1 0 9 -6 16 -14 16 -14 0 -16 -28 -2 -38 5 -4 5 -12 2 -18 -9 -14 -56
-15 -56 -1 0 6 5 10 10 10 15 0 12 19 -5 36 -8 9 -15 12 -15 8 0 -3 -7 -1 -15
6 -8 6 -20 8 -27 4 -7 -5 -23 -7 -35 -5 -22 2 -29 -12 -24 -43 3 -13 -20 -26
-44 -25 -11 0 -14 3 -7 6 16 6 15 28 -2 42 -11 9 -15 9 -19 -1 -4 -10 -8 -10
-16 2 -8 11 -5 19 12 32 13 11 17 18 9 18 -8 0 -27 -13 -42 -30 -31 -34 -56
-39 -63 -13 -3 10 -5 4 -6 -14 0 -17 -5 -34 -11 -38 -5 -3 -6 -13 -3 -21 4
-12 8 -12 13 -4 8 13 30 6 30 -9 0 -5 -27 -15 -59 -23 -33 -8 -58 -11 -55 -6
10 16 -128 13 -160 -4 -13 -7 -16 -7 -12 1 5 7 -7 11 -36 12 -70 2 -103 -2
-110 -14 -12 -20 2 -26 65 -23 46 2 65 -2 74 -13 10 -13 14 -13 21 -3 13 19
140 21 153 2 8 -11 12 -12 16 -2 2 6 18 12 35 12 23 0 29 -4 26 -17 -3 -19
-42 -22 -86 -9 -14 5 -22 3 -22 -4 0 -14 -41 -3 -52 14 -5 7 -8 7 -8 -3 0 -10
-16 -12 -72 -8 -40 3 -81 9 -90 12 -10 4 -18 3 -18 -3 0 -6 -13 -10 -29 -10
-23 1 -27 5 -23 20 3 14 -2 21 -17 25 -11 3 -18 9 -15 14 3 5 -4 9 -15 9 -10
0 -22 -6 -25 -12 -3 -10 -9 -8 -19 5 -10 12 -17 14 -22 7 -3 -5 -11 -8 -16 -5
-5 4 -9 0 -9 -7 0 -14 19 -19 73 -22 15 0 27 -7 27 -13 0 -12 -13 -17 -33 -14
-27 4 -56 3 -83 -3 -30 -7 -31 -6 -27 18 4 19 1 26 -11 26 -8 0 -13 6 -11 13
4 8 -7 12 -34 12 -22 0 -42 -3 -46 -7 -4 -4 -14 -4 -22 -1 -10 4 -14 2 -11 -7
4 -14 21 -19 78 -24 45 -4 56 -35 13 -37 -43 -2 -94 0 -135 5 -24 4 -38 1 -38
-6 0 -7 -6 -6 -16 3 -13 10 -17 10 -24 -2 -6 -8 -6 -15 0 -17 20 -7 9 -18 -17
-19 -55 -1 -68 -3 -83 -13 -13 -8 -13 -12 4 -27 17 -17 18 -17 11 6 -5 16 -4
21 4 17 6 -4 11 -15 11 -24 0 -15 2 -15 10 -2 7 11 12 12 18 3 10 -16 44 -12
59 7 11 13 12 13 13 -2 0 -10 7 -18 15 -18 18 0 20 20 3 21 -10 0 -10 2 0 6
17 7 15 23 -2 23 -8 0 -17 4 -20 9 -3 4 7 8 22 7 24 -1 27 -4 24 -33 -3 -25 0
-33 12 -33 9 0 16 -8 16 -17 0 -14 2 -15 9 -5 4 7 19 19 33 27 24 12 27 11 37
-12 9 -20 16 -24 36 -19 16 4 25 2 25 -5 0 -8 4 -8 14 1 17 13 77 10 89 -5 4
-6 10 -6 15 3 7 9 15 10 35 3 15 -6 34 -8 42 -5 8 4 22 1 30 -6 11 -9 18 -10
29 -1 10 9 16 8 26 -4 11 -13 7 -15 -24 -15 -21 0 -35 -4 -32 -9 8 -12 -87 -8
-96 4 -5 6 -8 5 -8 -2 0 -9 -67 -12 -282 -11 -156 0 -339 0 -408 0 -69 -1
-134 -1 -145 0 -11 0 -42 0 -70 -1 -96 -3 -107 -2 -99 11 6 10 4 11 -7 0 -7
-6 -29 -12 -48 -12 -19 0 -31 -3 -27 -7 4 -4 27 -7 51 -8 24 0 47 -4 51 -8 4
-4 13 -2 20 4 16 13 34 4 34 -17 0 -8 5 -14 10 -14 6 0 9 6 8 13 -3 12 32 11
42 -1 9 -12 50 -32 49 -25 -1 5 -1 14 0 22 1 11 4 11 18 0 10 -8 14 -9 10 -2
-4 6 -3 14 3 18 5 3 10 1 10 -5 0 -6 5 -8 10 -5 5 3 10 1 10 -4 0 -6 7 -11 16
-11 8 0 12 5 9 10 -4 6 6 10 22 9 24 0 25 -2 8 -8 -17 -7 -15 -9 13 -13 22 -3
36 0 39 8 4 10 9 11 24 1 17 -10 22 -9 33 5 10 14 33 17 142 18 526 3 721 7
730 13 15 9 65 -15 60 -29 -2 -6 0 -17 4 -24 10 -16 97 -15 117 1 9 8 13 8 13
0 0 -6 4 -11 8 -11 11 0 12 39 1 45 -5 4 -9 0 -9 -7 -1 -8 -9 -4 -19 10 -26
30 -39 28 -34 -6 4 -21 2 -24 -6 -12 -9 13 -11 13 -11 -2 0 -11 -5 -15 -15
-12 -13 5 -13 9 -3 22 11 13 10 14 -10 8 -13 -5 -22 -3 -22 3 0 6 8 11 18 11
9 1 28 7 42 15 24 13 21 14 -42 15 -37 0 -77 -4 -90 -9 -22 -8 -24 -6 -26 21
-1 16 2 27 7 24 5 -3 12 1 15 9 4 12 2 14 -8 8 -8 -4 -48 -6 -88 -3 -41 3 -92
3 -114 0 -22 -3 -51 -3 -64 1 -21 6 -21 7 -5 8 11 1 26 10 33 21 16 26 6 46
-14 29 -11 -9 -14 -8 -14 5 0 12 10 16 39 16 33 0 38 -3 34 -18 -3 -13 5 -21
30 -30 28 -10 42 -9 80 4 54 18 62 33 16 26 -22 -3 -30 -1 -25 7 12 19 57 13
63 -9 5 -19 18 -24 53 -22 8 0 17 -3 20 -8 3 -5 24 -3 46 5 22 7 60 12 84 10
25 -2 87 -4 138 -4 65 -1 91 -4 86 -12 -5 -8 -1 -8 14 0 28 15 166 15 156 0
-5 -8 -1 -8 14 0 11 6 32 11 46 11 31 0 26 -21 -13 -61 -25 -25 -107 -56 -119
-45 -3 3 0 6 6 6 7 0 12 4 12 9 0 5 -11 8 -24 5 -14 -2 -27 0 -31 6 -3 6 -14
6 -28 0 -12 -5 -34 -11 -49 -14 -35 -8 -36 -22 -3 -30 14 -4 31 -18 37 -31 8
-19 19 -25 41 -25 57 0 6 -18 -56 -19 -16 -1 -26 -5 -23 -10 4 -5 -3 -7 -14
-4 -11 3 -23 9 -26 14 -3 5 -10 9 -15 9 -6 0 -8 -4 -5 -9 3 -5 -1 -12 -10 -15
-12 -4 -15 -2 -10 9 3 8 1 15 -4 15 -6 0 -10 -5 -10 -10 0 -7 -7 -7 -21 0 -24
13 -41 4 -19 -10 13 -8 12 -10 -2 -10 -9 0 -20 4 -23 10 -9 15 -68 12 -92 -5
-14 -10 -24 -12 -28 -5 -3 5 1 10 9 10 9 0 16 5 16 11 0 5 -5 7 -11 3 -6 -3
-72 -6 -146 -5 -79 0 -152 -4 -175 -11 -32 -9 -41 -9 -48 2 -6 9 -13 11 -22 4
-7 -5 -20 -9 -28 -8 -8 1 -21 2 -27 3 -7 0 -13 10 -13 21 0 11 -4 20 -10 20
-5 0 -10 -11 -10 -25 0 -15 -6 -25 -14 -25 -14 0 -29 27 -22 39 6 9 -48 6 -63
-4 -6 -3 -11 -14 -12 -23 0 -12 -3 -11 -9 6 -11 25 -35 29 -56 7 -8 -8 -21
-12 -29 -9 -8 4 -15 2 -15 -4 0 -5 -21 -9 -47 -9 -27 0 -35 2 -20 4 16 3 26
10 24 16 -4 14 -82 15 -110 3 -13 -6 -16 -5 -12 7 5 11 0 13 -19 10 -31 -6
-31 -5 -7 -44 11 -18 21 -26 26 -20 3 6 11 9 16 5 5 -3 16 0 24 6 11 9 15 9
15 1 0 -6 -5 -11 -11 -11 -6 0 -28 -17 -49 -39 -20 -21 -51 -47 -69 -57 -17
-10 -31 -21 -31 -25 0 -4 -16 -17 -36 -28 -33 -20 -35 -20 -29 -2 3 12 0 21
-10 25 -8 3 -15 1 -15 -4 0 -6 -5 -10 -10 -10 -6 0 -5 8 2 20 7 11 14 16 16
11 5 -16 50 13 49 31 -1 17 -17 26 -17 10 0 -4 -14 -9 -32 -10 -18 -2 -35 -8
-39 -14 -9 -14 -29 -1 -29 18 0 8 -7 14 -15 14 -12 0 -9 -7 10 -27 23 -26 24
-29 8 -41 -23 -16 -43 -15 -43 3 0 8 -7 15 -16 15 -14 0 -15 2 -3 17 10 12 10
15 1 9 -7 -4 -27 2 -47 14 -36 22 -45 39 -22 41 6 1 -1 5 -18 9 l-30 8 30 2
c39 3 35 3 71 -4 25 -6 36 -1 62 24 31 29 46 70 20 53 -7 -4 -22 -6 -34 -5
-11 2 -26 -4 -33 -11 -12 -16 -51 -12 -51 5 0 5 -4 7 -10 3 -5 -3 -6 -13 -3
-22 4 -10 2 -14 -4 -10 -6 4 -13 2 -15 -5 -3 -8 -9 -8 -24 0 -16 10 -17 11 -2
12 10 0 16 7 15 19 0 11 -6 17 -14 14 -7 -3 -10 -10 -6 -17 4 -6 0 -5 -9 2
-14 11 -21 11 -40 1 -45 -25 -127 -14 -111 15 4 8 3 8 -6 0 -16 -15 -66 -5
-91 18 -17 16 -19 23 -10 32 9 8 14 8 17 -1 3 -9 10 -10 22 -3 10 5 21 6 25 3
3 -3 6 -2 6 4 0 15 -24 23 -49 16 -12 -3 -21 -2 -21 1 0 6 44 26 67 30 7 1 15
5 19 8 3 4 17 3 30 -2 16 -6 24 -6 24 1 0 6 4 7 10 4 5 -3 20 1 32 10 22 15
18 16 -62 14 -80 -2 -110 -12 -110 -37 0 -18 -29 -34 -50 -27 -11 3 -20 13
-20 21 0 8 5 12 10 9 6 -3 10 -1 10 5 0 7 8 9 19 5 10 -3 24 1 31 10 11 13 5
15 -44 15 -44 0 -56 3 -56 16 0 9 5 12 12 8 8 -5 9 -2 4 12 -13 33 -12 37 12
39 12 1 22 -2 22 -7 0 -4 -7 -8 -15 -8 -8 0 -15 -4 -15 -9 0 -14 20 -24 47
-26 19 0 23 4 21 27 -2 29 -4 30 -73 32 -16 1 -30 6 -30 11 0 6 3 9 8 8 4 -2
7 2 7 7 0 6 9 10 20 10 11 0 20 -4 20 -10 0 -17 62 -11 75 7 12 17 14 17 34
-1 12 -11 21 -14 21 -8 0 7 11 12 25 12 14 0 25 -5 25 -11 0 -12 58 -5 73 10
6 6 15 5 25 -6 11 -10 17 -12 20 -4 5 15 32 14 33 -1 0 -9 2 -9 6 1 4 11 7 11
13 0 7 -10 14 -10 35 -1 21 10 25 10 19 0 -6 -10 -4 -10 8 0 13 10 22 11 37 3
12 -7 22 -7 26 -2 6 11 45 10 45 -1 0 -4 18 -8 41 -8 24 0 38 4 34 10 -8 13 1
13 27 -1 16 -9 23 -8 29 2 8 12 10 12 18 0 7 -11 10 -11 15 0 5 11 7 11 12 2
9 -19 65 -16 80 4 19 26 18 47 -3 39 -10 -4 -14 -4 -10 0 4 4 1 14 -5 22 -10
11 -9 17 5 27 9 7 17 17 17 23 0 6 7 9 15 6 8 -4 15 -14 15 -24 0 -23 19 -30
44 -18 14 8 17 7 14 -4 -3 -7 -16 -14 -30 -16 -18 -2 -28 3 -35 20 -11 22 -11
21 -8 -7 2 -16 4 -33 4 -37 1 -4 19 -6 41 -4 22 2 40 -1 40 -5 0 -13 59 -4 73
11 9 10 9 11 0 6 -8 -4 -13 -1 -13 8 0 9 -8 16 -19 16 -14 0 -17 6 -13 25 4
25 15 30 65 26 24 -2 27 1 27 30 0 18 3 30 6 26 7 -6 34 17 34 29 0 4 -27 4
-60 1 -33 -3 -63 -1 -66 4 -3 5 -10 7 -15 3 -5 -3 -7 -10 -4 -15 4 -5 1 -9 -5
-9 -7 0 -9 -8 -5 -21 7 -20 6 -20 -12 -2 -10 10 -15 20 -11 21 4 2 8 8 8 13 0
13 -98 11 -102 -2 -3 -8 -10 -6 -21 5 -16 16 -18 16 -16 0 0 -4 -4 -10 -10
-14 -13 -7 -4 -40 10 -40 5 0 9 -4 9 -10 0 -5 -12 -10 -26 -10 -22 0 -24 2
-14 15 12 14 6 35 -9 35 -10 0 -9 -76 1 -86 8 -8 -16 -34 -31 -34 -6 0 -11 5
-11 10 0 6 7 10 15 10 20 0 19 17 -1 28 -17 10 -27 54 -17 79 4 10 14 13 29 9
14 -4 24 -2 24 4 0 5 -21 9 -47 9 -27 -1 -40 -3 -30 -6 26 -7 20 -18 -10 -19
-46 -1 -77 -10 -81 -22 -5 -16 -23 -15 -21 1 4 36 -2 42 -41 42 -24 0 -42 -5
-45 -13 -3 -7 -9 -10 -15 -7 -6 4 -8 10 -5 15 3 4 -2 11 -11 14 -8 3 -12 2 -9
-4 3 -6 2 -10 -4 -10 -5 0 -11 5 -13 11 -2 7 -17 7 -48 0 -47 -10 -65 -7 -54
11 5 8 1 9 -12 4 -18 -8 -41 -14 -56 -15 -5 -1 -8 -5 -8 -10 0 -9 45 -5 61 4
4 3 10 -2 13 -11 4 -9 5 -17 4 -18 -40 -15 -59 -51 -28 -51 8 0 14 6 13 13 -2
6 2 12 7 12 6 0 10 -3 10 -7 0 -5 30 -8 66 -7 36 0 67 -3 70 -7 2 -4 12 -5 23
-2 24 6 35 -22 16 -41 -13 -12 -9 -14 28 -13 83 2 109 -2 101 -15 -4 -8 -3
-10 2 -5 5 5 14 25 19 45 6 19 16 37 23 38 7 1 8 0 2 -3 -7 -3 -4 -10 7 -19
16 -12 16 -13 2 -14 -21 0 -31 -24 -16 -39 12 -12 13 -12 -78 -17 -33 -2 -67
-4 -75 -5 -8 -1 -43 1 -78 5 -35 3 -71 2 -80 -3 -10 -5 -29 -7 -45 -4 -22 4
-26 9 -21 28 7 27 -7 34 -61 28 -22 -3 -57 -6 -77 -8 -59 -4 -60 -4 -53 -15 4
-6 -5 -10 -19 -10 -41 0 -41 0 -39 18 1 16 1 16 -11 0 -7 -10 -17 -14 -22 -10
-4 4 -3 0 4 -9 10 -14 10 -18 -3 -23 -8 -3 -15 -2 -16 2 -7 53 -7 147 1 160 5
10 10 12 10 5 0 -16 36 -17 45 -3 5 8 12 7 22 -2 20 -17 19 -17 37 7 13 19 15
19 21 3 5 -13 18 -18 46 -18 21 0 39 4 39 10 0 5 -3 9 -7 9 -26 -4 -39 4 -41
25 -1 20 4 24 41 29 56 8 70 11 85 20 7 5 12 4 12 -2 0 -6 5 -11 11 -11 17 0
41 29 36 44 -3 7 -1 18 4 23 5 5 5 21 0 38 -8 25 -9 27 -10 7 -1 -19 -4 -21
-19 -13 -13 7 -22 7 -30 -1 -6 -6 -25 -11 -42 -10 -17 0 -28 -3 -25 -8 2 -4
-5 -10 -16 -13 -17 -5 -19 -9 -10 -25 8 -16 7 -21 -6 -26 -13 -5 -15 0 -11 31
3 21 1 49 -3 63 -7 24 -7 24 -8 3 -1 -20 -4 -21 -27 -13 -14 6 -23 6 -20 1 9
-13 -45 -20 -64 -8 -10 5 -15 18 -13 27 3 12 -1 17 -14 17 -36 0 -43 3 -43 21
0 10 3 13 8 6 4 -5 28 -10 54 -10 41 1 48 4 53 24 3 13 1 30 -4 36 -6 7 -7 17
-3 21 4 5 1 5 -6 1 -7 -4 -9 -12 -6 -18 4 -6 2 -8 -3 -5 -16 10 -74 -4 -67
-15 4 -6 -3 -5 -15 1 -14 8 -19 19 -17 34 3 12 5 29 5 38 1 11 9 14 31 11 18
-3 30 0 30 7 0 6 -15 11 -34 11 -30 0 -33 3 -31 28 1 15 3 45 4 67 1 36 3 38
13 20 7 -11 11 -36 9 -55 -3 -30 -1 -33 13 -21 13 11 16 11 17 0 0 -8 5 -4 11
8 8 17 7 28 -6 47 -9 14 -16 29 -16 33 0 4 5 0 11 -9 5 -10 20 -18 32 -18 16
0 18 -3 8 -9 -10 -7 -11 -13 -2 -29 15 -29 44 -18 38 14 -3 16 0 24 9 24 8 0
11 6 7 16 -3 9 0 20 8 25 11 7 11 9 1 9 -7 0 -10 5 -7 10 8 13 -61 13 -86 0
-13 -7 -19 -7 -19 0 0 5 -11 10 -25 10 -18 0 -23 4 -19 15 4 8 15 15 25 15 18
0 21 5 23 39 1 10 13 15 36 15 57 1 51 21 -8 24 -51 2 -53 2 -46 -20 6 -21 6
-21 -11 -4 -14 14 -19 37 -22 102 l-3 84 38 1 c20 1 42 0 47 -1 6 -2 20 -2 32
-2 32 2 38 -16 10 -27 -14 -6 -28 -14 -31 -19 -8 -13 -36 -9 -45 7 -6 10 -10
9 -14 -3 -6 -16 29 -43 40 -32 4 3 12 1 20 -5 9 -9 13 -8 13 0 0 6 16 11 35
11 22 0 35 5 35 13 0 8 10 22 23 33 20 18 36 20 227 18 113 -1 210 2 216 7 6
5 10 19 9 31 -1 20 -7 23 -51 24 -27 1 -52 -4 -56 -10 -5 -8 -11 -7 -20 2 -17
17 -31 15 -24 -3 3 -9 0 -15 -9 -15 -8 0 -14 5 -12 12 1 8 -16 13 -55 13 -32
1 -58 -3 -58 -8 0 -5 -7 -4 -15 3 -13 11 -19 7 -17 -11 1 -4 -8 -9 -19 -12
-14 -4 -19 -1 -17 11 3 17 -1 19 -52 21 -26 1 -30 5 -30 31 0 29 2 30 22 19
22 -12 22 -12 3 -20 -25 -10 -13 -12 77 -13 47 -1 69 2 72 11 3 8 -2 13 -13
13 -13 0 -18 7 -18 25 0 21 5 25 28 27 50 2 54 3 60 12 4 4 16 3 27 -3 16 -8
21 -7 26 5 9 25 7 64 -4 64 -20 0 -9 26 18 41 25 14 30 14 38 2 8 -13 12 -12
28 6 l19 21 -59 0 c-72 0 -104 -8 -104 -25 0 -14 -25 -27 -34 -18 -3 4 1 15
11 25 15 17 14 18 -15 18 -34 0 -41 10 -19 29 9 7 17 7 24 0 7 -7 11 0 11 23
0 53 2 55 19 18 10 -19 22 -38 27 -42z m336 15 c0 -2 -4 -1 -10 2 -5 3 -10 1
-10 -4 0 -6 -8 -11 -17 -11 -15 0 -15 2 -4 9 8 5 11 16 7 26 -11 29 6 38 20
10 8 -15 14 -29 14 -32z m161 -1 c-6 -2 -11 -13 -11 -24 0 -12 -3 -19 -6 -16
-5 6 -8 64 -5 93 1 6 8 -3 17 -20 10 -19 11 -31 5 -33z m184 48 c3 -5 1 -10
-4 -10 -6 0 -11 5 -11 10 0 6 2 10 4 10 3 0 8 -4 11 -10z m155 0 c0 -5 -4 -10
-10 -10 -5 0 -10 5 -10 10 0 6 5 10 10 10 6 0 10 -4 10 -10z m154 2 c2 -4 -11
-12 -29 -18 -29 -9 -34 -8 -38 8 -4 15 1 18 28 18 19 0 36 -4 39 -8z m146 -16
c0 -2 -9 -6 -20 -9 -15 -4 -20 0 -20 14 0 17 3 18 20 9 11 -6 20 -12 20 -14z
m159 10 c9 -11 8 -15 -5 -20 -23 -9 -24 -8 -24 14 0 23 13 26 29 6z m169 -17
c-21 -14 -26 -10 -21 11 4 16 8 18 20 9 11 -10 11 -14 1 -20z m-1662 4 c16
-21 18 -37 4 -28 -5 3 -10 2 -10 -3 0 -16 -52 -25 -61 -10 -7 10 -9 10 -9 -2
0 -13 -2 -13 -9 -1 -8 12 -12 12 -25 2 -9 -7 -13 -18 -9 -25 3 -6 0 -5 -8 2
-12 11 -10 16 11 32 28 21 68 31 76 19 10 -17 25 -9 19 11 -8 25 3 26 21 3z
m64 -19 c0 -2 -9 0 -20 6 -11 6 -20 13 -20 16 0 2 9 0 20 -6 11 -6 20 -13 20
-16z m331 9 c13 -16 12 -17 -3 -4 -17 13 -22 21 -14 21 2 0 10 -8 17 -17z
m170 0 c13 -16 12 -17 -3 -4 -10 7 -18 15 -18 17 0 8 8 3 21 -13z m-24 -55
c-3 -8 -6 -5 -6 6 -1 11 2 17 5 13 3 -3 4 -12 1 -19z m73 12 c0 -5 -5 -10 -11
-10 -5 0 -7 5 -4 10 3 6 8 10 11 10 2 0 4 -4 4 -10z m-603 -41 c-7 -11 -18
-17 -25 -14 -7 3 -10 0 -7 -5 3 -6 2 -10 -4 -10 -20 0 -21 19 -1 30 11 6 20
18 20 27 0 12 3 13 15 3 11 -9 12 -16 2 -31z m-169 2 c-13 -21 -53 -38 -41
-18 14 26 26 37 39 37 12 0 12 -4 2 -19z m92 -26 c10 -12 10 -15 -4 -15 -9 0
-16 7 -16 15 0 8 2 15 4 15 2 0 9 -7 16 -15z m170 0 c10 -12 10 -15 -4 -15 -9
0 -16 7 -16 15 0 8 2 15 4 15 2 0 9 -7 16 -15z m564 -10 c3 -9 0 -15 -9 -15
-8 0 -15 7 -15 15 0 8 4 15 9 15 5 0 11 -7 15 -15z m-843 -26 c16 -8 18 -13 9
-24 -6 -8 -18 -11 -25 -9 -7 3 -22 1 -33 -5 -17 -9 -19 -7 -14 14 2 13 12 26
21 28 9 3 17 5 19 6 2 0 12 -4 23 -10z m107 -50 c-20 -18 -38 -17 -38 2 0 5 6
8 12 7 7 -2 14 8 16 22 4 23 5 24 18 6 12 -17 11 -21 -8 -37z m62 30 c0 -6 -4
-7 -10 -4 -5 3 -10 11 -10 16 0 6 5 7 10 4 6 -3 10 -11 10 -16z m123 -25 c-10
-7 -21 -10 -25 -8 -5 3 -8 0 -8 -6 0 -6 -5 -8 -12 -4 -8 5 -6 11 5 19 10 7 17
20 17 30 0 17 1 17 20 0 19 -17 19 -19 3 -31z m585 28 c9 9 12 8 12 -5 0 -9
-7 -17 -15 -17 -8 0 -18 -1 -22 -2 -3 -2 -7 8 -8 21 -2 21 0 22 10 8 9 -12 14
-14 23 -5z m-837 -60 c-6 -2 -11 -13 -11 -25 0 -15 -3 -18 -11 -10 -5 5 -7 22
-3 37 5 22 9 25 21 14 10 -8 11 -14 4 -16z m189 -2 c0 -5 -7 -7 -15 -4 -11 4
-15 -1 -15 -17 0 -16 -3 -20 -11 -12 -5 5 -7 22 -4 36 6 22 10 25 26 16 10 -5
19 -14 19 -19z m-251 -34 c9 -10 8 -15 -4 -20 -10 -4 -15 1 -15 14 0 24 4 25
19 6z m941 4 c0 -5 -2 -10 -4 -10 -3 0 -8 5 -11 10 -3 6 -1 10 4 10 6 0 11 -4
11 -10z m-25 -10 c3 -5 2 -10 -4 -10 -5 0 -13 5 -16 10 -3 6 -2 10 4 10 5 0
13 -4 16 -10z m104 -34 c19 -12 2 -26 -22 -18 -12 5 -64 7 -114 7 -62 -2 -93
2 -93 9 0 12 210 14 229 2z m-1003 -22 c34 -2 44 1 44 13 0 14 3 13 20 -2 11
-10 18 -20 15 -23 -2 -3 -38 -6 -80 -8 l-75 -4 0 26 c0 23 2 25 16 13 9 -7 36
-14 60 -15z m1820 -82 c-2 -4 2 -12 9 -19 8 -8 15 -8 17 -3 3 11 58 -10 58
-21 0 -10 -49 -17 -71 -12 -10 3 -16 9 -13 14 3 5 0 9 -5 9 -6 0 -11 19 -10
43 0 36 2 39 10 19 5 -13 7 -27 5 -30z m-431 -6 c50 -4 74 -16 31 -16 -17 0
-25 -4 -20 -11 4 -8 0 -8 -15 0 -14 8 -21 8 -21 1 0 -5 5 -10 10 -10 6 0 10
-8 10 -17 0 -15 -1 -15 -14 2 -8 12 -20 16 -35 12 -11 -3 -19 -1 -15 4 3 5 -2
9 -10 9 -9 0 -16 5 -16 11 0 5 5 7 10 4 6 -3 13 1 16 9 3 9 10 14 14 11 5 -3
30 -7 55 -9z m565 3 c0 -5 -4 -8 -9 -5 -5 3 -14 -1 -21 -9 -9 -10 -9 -15 -1
-15 6 0 11 -10 11 -22 -1 -21 -2 -21 -16 5 -12 22 -13 31 -3 43 13 16 39 19
39 3z m167 -10 c-9 -6 -15 -14 -12 -20 4 -5 -1 -9 -9 -9 -8 0 -20 -8 -25 -17
-6 -10 -11 -13 -11 -6 0 8 -14 11 -37 10 -22 -1 -38 3 -40 11 -3 7 4 12 17 12
12 0 19 4 16 9 -11 17 19 18 31 2 11 -15 13 -15 25 1 13 16 48 28 58 20 3 -2
-3 -8 -13 -13z m-502 -29 c3 -5 1 -10 -4 -10 -6 0 -11 5 -11 10 0 6 2 10 4 10
3 0 8 -4 11 -10z m178 4 c3 -3 3 -13 0 -21 -5 -12 -7 -12 -14 -1 -15 23 -4 40
14 22z m172 -4 c3 -5 1 -10 -4 -10 -6 0 -11 5 -11 10 0 6 2 10 4 10 3 0 8 -4
11 -10z m171 -35 c2 -19 -1 -35 -6 -35 -5 0 -7 -6 -4 -14 6 -16 -9 -22 -78
-31 -44 -5 -48 -4 -48 15 0 13 10 24 26 30 33 13 34 13 34 -5 0 -18 11 -19 34
-2 17 12 24 32 25 71 1 31 13 10 17 -29z m-686 25 c0 -5 -4 -10 -10 -10 -5 0
-10 5 -10 10 0 6 5 10 10 10 6 0 10 -4 10 -10z m-166 -56 c3 -8 2 -12 -4 -9
-6 3 -10 10 -10 16 0 14 7 11 14 -7z m216 12 c0 -2 -7 -7 -16 -10 -8 -3 -12
-2 -9 4 6 10 25 14 25 6z m135 -5 c28 -6 28 -7 8 -13 -13 -3 -26 -2 -29 3 -3
5 -10 7 -15 3 -5 -3 -6 -10 -3 -16 7 -10 -13 -28 -31 -28 -8 0 -12 39 -6 58 2
4 44 0 76 -7z m123 -27 c-5 -29 -24 -26 -22 3 1 16 3 30 3 33 1 2 6 -1 12 -7
6 -6 9 -19 7 -29z m82 28 c0 -6 -45 -19 -53 -15 -15 9 4 23 28 21 14 -1 25 -4
25 -6z m92 2 c9 -8 -2 -42 -15 -47 -7 -3 -12 7 -13 24 -1 26 14 38 28 23z m65
-18 c-9 -18 -15 -22 -24 -14 -19 16 -16 26 10 31 12 2 23 5 24 6 0 0 -4 -10
-10 -23z m-537 4 c0 -5 -2 -10 -4 -10 -3 0 -8 5 -11 10 -3 6 -1 10 4 10 6 0
11 -4 11 -10z m165 -49 c3 -5 1 -12 -5 -16 -5 -3 -10 1 -10 9 0 18 6 21 15 7z
m185 -6 c0 -2 -7 -5 -15 -9 -9 -3 -15 0 -15 9 0 9 6 12 15 9 8 -4 15 -7 15 -9z
m320 -120 c0 -8 0 -18 0 -22 0 -4 -14 -8 -32 -10 -18 -2 -47 -5 -64 -7 -27 -4
-31 -1 -27 14 4 14 13 17 49 15 32 -3 47 1 51 11 7 19 23 18 23 -1z m-245 -15
c17 14 35 5 35 -16 0 -8 -4 -12 -10 -9 -5 3 -10 1 -10 -6 0 -7 -8 -9 -22 -4
-13 3 -29 7 -35 7 -9 1 -9 5 -3 13 5 7 6 16 2 21 -4 4 1 2 11 -5 13 -11 20
-11 32 -1z m95 -3 c9 3 7 -1 -5 -11 -19 -15 -45 -23 -32 -9 4 3 1 13 -6 21
-10 13 -9 14 8 5 11 -6 27 -8 35 -6z m-230 -56 c0 -13 -26 -17 -72 -13 -21 2
-35 8 -32 13 7 12 104 12 104 0z m60 -1 c0 -5 -4 -10 -10 -10 -5 0 -10 5 -10
10 0 6 5 10 10 10 6 0 10 -4 10 -10z m110 -2 c0 -4 -22 -8 -50 -8 -27 0 -50 4
-50 9 0 4 23 8 50 8 28 -1 50 -4 50 -9z m95 2 c3 -5 -1 -10 -10 -10 -9 0 -13
5 -10 10 3 6 8 10 10 10 2 0 7 -4 10 -10z m-309 -33 c8 -7 -16 -11 -51 -7
l-20 2 20 -17 c12 -10 14 -15 5 -12 -8 2 -23 0 -34 -5 -12 -7 -22 -6 -29 1 -8
8 -8 11 1 11 7 0 12 5 12 10 0 6 -12 10 -27 10 -16 0 -23 3 -16 8 14 9 130 9
139 -1z m181 0 c3 -4 1 -7 -6 -7 -7 0 -9 -5 -5 -12 5 -8 2 -9 -9 -5 -10 4 -25
10 -34 14 -14 5 -13 0 6 -25 18 -27 20 -32 6 -32 -8 0 -18 7 -21 15 -4 10 -13
13 -25 10 -29 -9 -43 5 -22 21 17 12 16 13 -10 14 -16 0 -26 4 -23 8 6 10 133
8 143 -1z m179 0 c4 -4 1 -7 -7 -7 -8 0 -22 -6 -31 -14 -16 -12 -15 -14 4 -30
20 -18 21 -18 16 8 -4 20 -1 26 13 26 11 0 19 -7 19 -16 0 -12 4 -14 13 -7 6
6 20 13 30 16 13 5 17 1 17 -19 0 -14 -4 -23 -9 -20 -4 3 -3 -12 2 -34 6 -22
8 -43 4 -46 -4 -4 -30 -11 -57 -14 -37 -5 -54 -3 -62 7 -9 11 -7 15 10 20 25
6 30 23 8 23 -9 0 -13 7 -11 20 3 16 -2 20 -20 20 -19 0 -23 4 -18 18 5 14 3
13 -10 -3 -10 -12 -16 -15 -17 -7 0 14 -40 7 -50 -9 -3 -4 -12 -4 -19 0 -14 9
-7 51 9 51 5 0 7 -7 4 -15 -8 -19 -5 -19 37 3 l34 17 -39 3 c-22 2 -35 7 -28
11 15 9 149 8 158 -2z m-336 -27 c0 -5 -2 -10 -4 -10 -3 0 -8 5 -11 10 -3 6
-1 10 4 10 6 0 11 -4 11 -10z m168 -86 c-3 -14 -5 -12 -10 9 -3 19 -2 25 4 19
6 -6 8 -18 6 -28z m62 12 c0 -2 -7 -6 -15 -10 -8 -3 -15 -1 -15 4 0 6 7 10 15
10 8 0 15 -2 15 -4z m-160 -32 c0 -8 -7 -14 -15 -14 -17 0 -18 2 -9 24 7 18
24 12 24 -10z m55 -4 c4 -6 -6 -10 -22 -9 -25 0 -26 1 -8 9 11 5 21 9 22 9 1
1 5 -3 8 -9z m75 0 c0 -5 -10 -10 -22 -9 -22 0 -22 1 -3 9 11 5 21 9 23 9 1 1
2 -3 2 -9z m-465 -40 c-3 -6 -17 -7 -31 -4 -20 5 -26 2 -31 -14 -3 -12 -16
-22 -31 -25 -35 -7 -42 0 -8 9 14 3 26 13 26 21 0 8 -4 11 -10 8 -5 -3 -10 -1
-10 4 0 6 22 11 51 11 31 0 48 -4 44 -10z m170 0 c-3 -4 -14 -6 -24 -3 -13 3
-21 -2 -25 -15 -4 -13 -18 -22 -38 -24 -28 -5 -29 -4 -13 9 11 7 23 13 28 13
4 0 5 5 2 10 -4 6 -11 8 -16 5 -5 -4 -9 -2 -9 3 0 6 23 10 50 10 28 1 48 -3
45 -8z m95 0 c0 -5 -4 -10 -10 -10 -5 0 -10 5 -10 10 0 6 5 10 10 10 6 0 10
-4 10 -10z m-1759 -58 c-22 -7 -10 -21 16 -19 35 3 44 -28 11 -37 -68 -18
-114 9 -69 40 11 8 21 22 21 31 0 13 2 13 16 2 10 -8 12 -15 5 -17z m1679 -2
c-18 -11 -24 -6 -16 16 5 14 9 15 19 5 9 -9 9 -14 -3 -21z m76 23 c-10 -11
-36 -12 -36 -2 0 5 10 9 22 9 12 0 18 -3 14 -7z m-416 -12 c0 -6 -4 -13 -10
-16 -5 -3 -10 1 -10 9 0 9 5 16 10 16 6 0 10 -4 10 -9z m170 0 c0 -6 -4 -13
-10 -16 -5 -3 -10 1 -10 9 0 9 5 16 10 16 6 0 10 -4 10 -9z m354 0 c3 -5 -1
-11 -9 -15 -9 -3 -15 0 -15 9 0 16 16 20 24 6z m-1656 -46 c-3 -3 -9 2 -12 12
-6 14 -5 15 5 6 7 -7 10 -15 7 -18z m-159 -76 c-22 -14 -39 -11 -34 6 16 51
15 50 32 26 13 -20 13 -25 2 -32z m-64 -19 c3 -5 1 -10 -4 -10 -6 0 -11 5 -11
10 0 6 2 10 4 10 3 0 8 -4 11 -10z m405 -43 c0 -5 -4 -5 -10 -2 -5 3 -10 1
-10 -4 0 -6 -8 -11 -17 -11 -13 0 -14 3 -5 12 7 7 12 21 12 32 0 20 0 20 15 0
8 -10 15 -23 15 -27z m480 -17 c0 -6 -8 -10 -17 -11 -13 0 -11 -3 6 -10 16 -6
21 -13 14 -20 -19 -19 -43 2 -43 37 0 32 2 34 20 24 11 -6 20 -15 20 -20z
m970 -44 c0 -6 3 -21 6 -32 4 -16 0 -23 -14 -26 -14 -4 -19 -2 -16 7 4 9 -3
11 -20 8 -21 -4 -26 -1 -26 16 0 12 6 21 15 21 8 0 15 6 15 14 0 9 7 12 20 9
11 -3 20 -10 20 -17z m154 18 c10 -4 16 -17 15 -33 -1 -16 -3 -20 -6 -9 -4 16
-6 16 -20 3 -20 -20 -23 -17 -16 18 6 30 5 29 27 21z m176 -19 c0 -16 -6 -25
-16 -25 -11 0 -14 5 -10 16 3 9 6 20 6 25 0 5 5 9 10 9 6 0 10 -11 10 -25z
m-2031 -49 c9 -10 8 -15 -4 -20 -10 -4 -15 1 -15 14 0 24 4 25 19 6z m1741
-46 c0 -5 -5 -10 -11 -10 -5 0 -7 5 -4 10 3 6 8 10 11 10 2 0 4 -4 4 -10z
m186 -7 c7 -10 13 -22 14 -28 0 -5 -5 -3 -10 5 -6 10 -10 11 -10 3 0 -20 -17
-15 -23 6 -8 33 8 41 29 14z m-216 -3 c0 -5 -5 -10 -11 -10 -5 0 -7 5 -4 10 3
6 8 10 11 10 2 0 4 -4 4 -10z m97 -12 c-3 -8 -6 -5 -6 6 -1 11 2 17 5 13 3 -3
4 -12 1 -19z m178 11 c-4 -6 1 -17 11 -24 18 -14 18 -14 -3 -15 -18 0 -23 6
-23 25 0 14 5 25 11 25 5 0 7 -5 4 -11z m-735 -38 c0 -10 -7 -25 -16 -32 -15
-12 -16 -11 -10 9 6 18 3 22 -16 23 -23 1 -23 1 2 9 38 12 40 12 40 -9z m315
1 c-3 -3 -11 0 -18 7 -9 10 -8 11 6 5 10 -3 15 -9 12 -12z m-574 -35 c5 -29 3
-37 -9 -37 -9 0 -12 3 -9 7 4 3 0 14 -9 24 -18 20 -12 53 8 47 7 -3 16 -21 19
-41z m409 33 c0 -13 -11 -13 -30 0 -12 8 -11 10 8 10 12 0 22 -4 22 -10z m126
3 c-2 -2 -26 -6 -52 -9 -34 -3 -44 -1 -34 6 14 9 95 12 86 3z m134 -1 c0 -4
-9 -8 -20 -9 -11 -1 -18 2 -15 8 7 11 35 12 35 1z m-825 -32 c3 -5 1 -10 -4
-10 -6 0 -11 5 -11 10 0 6 2 10 4 10 3 0 8 -4 11 -10z m1023 -122 c7 -7 12
-19 12 -27 0 -14 -1 -14 -10 -1 -8 13 -10 12 -10 -2 0 -19 -25 -25 -35 -8 -3
6 -1 10 4 10 6 0 11 9 11 20 0 23 10 26 28 8z m65 -13 c-7 -19 -11 -19 -29 -1
-12 13 -12 15 4 19 24 5 32 -1 25 -18z m-1423 -5 c0 -5 -7 -10 -16 -10 -8 0
-12 5 -9 10 3 6 10 10 16 10 5 0 9 -4 9 -10z m351 -73 c-13 -13 -26 -3 -16 12
3 6 11 8 17 5 6 -4 6 -10 -1 -17z m-434 -223 c-7 -7 -37 7 -37 17 0 6 9 5 21
-1 11 -7 19 -14 16 -16z"/>
<path d="M1927 2323 c-4 -3 -7 -16 -7 -27 0 -15 3 -17 9 -8 6 11 13 11 36 0
23 -10 29 -10 33 0 2 7 10 19 19 27 13 13 9 15 -35 15 -27 0 -52 -3 -55 -7z"/>
<path d="M2047 2318 c-15 -5 -26 -15 -24 -21 5 -16 47 -16 47 0 0 7 5 13 10
13 6 0 10 -4 10 -9 0 -19 35 -22 48 -4 13 17 14 17 28 -1 10 -14 14 -16 14 -5
0 12 2 12 10 -1 8 -11 9 -9 8 13 -2 26 -4 27 -63 26 -33 0 -73 -5 -88 -11z"/>
<path d="M1882 2301 c4 -13 18 -16 19 -4 0 4 -5 9 -11 12 -7 2 -11 -2 -8 -8z"/>
<path d="M2058 2263 c7 -3 16 -2 19 1 4 3 -2 6 -13 5 -11 0 -14 -3 -6 -6z"/>
<path d="M2196 2255 c4 -8 9 -15 13 -15 4 0 8 7 8 15 0 8 -6 15 -13 15 -8 0
-11 -6 -8 -15z"/>
<path d="M2540 2259 c0 -5 5 -7 10 -4 6 3 10 8 10 11 0 2 -4 4 -10 4 -5 0 -10
-5 -10 -11z"/>
<path d="M1467 2242 c-18 -4 -17 -5 2 -19 12 -8 21 -20 20 -26 -5 -31 12 -45
47 -37 19 4 36 4 39 0 6 -9 55 11 55 23 0 4 -12 8 -27 8 -24 2 -25 2 -5 6 28
6 29 31 1 42 -28 10 -82 7 -86 -5 -1 -5 1 -15 6 -23 8 -12 12 -12 25 -2 13 11
16 11 16 -3 0 -9 -8 -16 -20 -16 -27 0 -36 3 -32 13 5 16 -23 43 -41 39z"/>
<path d="M1655 2199 c5 -43 12 -48 49 -39 20 4 39 3 44 -2 10 -10 52 10 52 25
0 5 -28 7 -62 6 -51 -3 -62 -1 -60 11 2 8 8 18 14 21 6 4 -1 7 -15 7 -22 0
-25 -4 -22 -29z"/>
<path d="M1835 2170 c13 -15 23 -16 48 -9 19 5 35 5 41 -1 6 -6 16 -5 28 1 36
20 17 29 -58 28 -72 -1 -74 -2 -59 -19z"/>
<path d="M2010 2169 c8 -14 16 -15 45 -9 33 7 35 7 29 -13 l-6 -21 33 22 c55
34 48 42 -34 40 -68 -2 -75 -3 -67 -19z"/>
<path d="M1900 2140 c0 -5 5 -10 10 -10 6 0 10 5 10 10 0 6 -4 10 -10 10 -5 0
-10 -4 -10 -10z"/>
<path d="M2408 2129 c-25 -27 -23 -29 27 -27 44 1 54 13 12 13 -15 0 -21 5
-19 18 4 21 2 21 -20 -4z"/>
<path d="M2491 2134 c0 -11 3 -14 6 -6 3 7 2 16 -1 19 -3 4 -6 -2 -5 -13z"/>
<path d="M821 2103 c-6 -7 -11 -14 -11 -17 0 -11 141 1 152 12 12 12 11 13
-93 16 -20 0 -42 -4 -48 -11z"/>
<path d="M992 2104 c-7 -7 -12 -15 -12 -18 0 -2 37 -4 83 -4 45 1 76 3 68 6
-11 4 -11 6 0 13 10 6 5 9 -16 10 -16 1 -48 2 -70 4 -23 1 -46 -4 -53 -11z"/>
<path d="M1752 2112 c-20 -6 -14 -19 13 -24 14 -3 25 -3 25 -1 0 11 -27 29
-38 25z"/>
<path d="M1860 2110 c-8 -5 -23 -7 -32 -4 -11 3 -18 0 -18 -8 0 -22 48 -20 60
2 12 23 11 24 -10 10z"/>
<path d="M1905 2110 c3 -6 -1 -10 -9 -10 -9 0 -16 -4 -16 -9 0 -5 11 -8 25 -7
14 0 25 5 25 9 0 5 6 5 13 0 23 -15 57 -14 57 1 0 10 -9 14 -27 12 -16 -1 -38
1 -51 6 -15 5 -21 4 -17 -2z"/>
<path d="M2148 2112 c-16 -2 -28 -7 -28 -11 0 -4 30 -4 67 0 37 4 85 5 107 2
23 -2 37 -1 33 4 -9 8 -128 12 -179 5z"/>
<path d="M1607 2095 c6 -16 45 -14 50 2 2 5 -10 10 -26 11 -22 0 -28 -3 -24
-13z"/>
<path d="M1670 2093 c0 -14 53 -10 57 4 2 6 -10 10 -27 9 -16 -1 -30 -6 -30
-13z"/>
<path d="M1690 2053 c-28 -14 -27 -14 73 -19 60 -2 67 -1 67 17 0 10 -4 19
-10 19 -5 0 -10 -4 -10 -8 0 -5 -13 -9 -30 -10 -16 0 -30 3 -30 7 0 11 -33 8
-60 -6z"/>
<path d="M1912 2058 c-22 -22 -13 -28 43 -28 43 0 53 3 49 15 -4 9 -17 13 -40
11 -18 -1 -35 2 -36 6 -2 5 -9 3 -16 -4z"/>
<path d="M1850 2051 c0 -5 7 -12 16 -15 22 -9 24 -8 24 9 0 8 -9 15 -20 15
-11 0 -20 -4 -20 -9z"/>
<path d="M2021 2047 c2 -1 12 -9 22 -16 14 -12 17 -11 17 3 0 10 -8 16 -22 16
-12 0 -19 -1 -17 -3z"/>
<path d="M1195 1990 c3 -5 8 -10 11 -10 2 0 4 5 4 10 0 6 -5 10 -11 10 -5 0
-7 -4 -4 -10z"/>
<path d="M1330 1990 c0 -5 5 -10 10 -10 6 0 10 5 10 10 0 6 -4 10 -10 10 -5 0
-10 -4 -10 -10z"/>
<path d="M2095 1990 c3 -5 8 -10 11 -10 2 0 4 5 4 10 0 6 -5 10 -11 10 -5 0
-7 -4 -4 -10z"/>
<path d="M2130 1990 c0 -5 5 -10 10 -10 6 0 10 5 10 10 0 6 -4 10 -10 10 -5 0
-10 -4 -10 -10z"/>
<path d="M2160 1990 c0 -5 7 -10 15 -10 8 0 15 5 15 10 0 6 -7 10 -15 10 -8 0
-15 -4 -15 -10z"/>
<path d="M727 1949 c-9 -5 -22 -7 -27 -4 -6 3 -10 1 -10 -5 0 -8 9 -10 25 -6
14 4 31 3 38 -1 6 -4 40 -6 74 -5 35 1 64 -2 68 -8 5 -8 11 -8 20 0 9 8 14 5
18 -10 3 -11 10 -20 17 -20 7 0 9 8 4 23 -4 12 -7 28 -7 35 0 11 -17 13 -76
10 -42 -3 -85 -8 -95 -13 -14 -6 -17 -5 -12 3 9 15 -12 15 -37 1z"/>
<path d="M972 1951 c-10 -6 -10 -15 -3 -34 10 -26 31 -37 31 -17 0 6 11 10 25
10 17 0 23 -4 19 -15 -5 -11 0 -12 26 -5 17 5 37 7 45 4 7 -3 15 2 17 12 3 16
4 16 22 -2 14 -13 21 -15 24 -6 2 6 13 12 23 12 11 0 17 -4 14 -10 -4 -6 7
-10 24 -10 18 0 31 5 31 13 0 8 3 7 10 -3 15 -24 21 -6 9 28 l-10 31 -148 0
c-80 0 -152 -4 -159 -8z"/>
<path d="M1348 1942 c-10 -2 -18 -7 -18 -12 0 -5 -8 -7 -17 -3 -12 4 -10 -1 7
-16 14 -12 26 -18 28 -12 2 6 14 11 28 11 16 0 22 -4 18 -15 -5 -11 0 -12 26
-5 17 5 38 6 46 3 16 -6 19 12 4 22 -6 4 -8 11 -5 16 4 5 -2 10 -12 10 -50 4
-90 5 -105 1z"/>
<path d="M1500 1932 c0 -7 -4 -10 -10 -7 -5 3 -7 0 -4 -9 7 -17 34 -30 34 -16
0 6 12 10 26 10 18 0 25 -4 21 -14 -5 -11 1 -12 29 -4 19 5 39 6 44 3 6 -3 10
-2 10 4 0 5 -5 13 -10 16 -6 4 -8 11 -5 16 6 9 -10 12 -87 13 -34 1 -48 -3
-48 -12z"/>
<path d="M550 1920 c0 -5 5 -10 10 -10 6 0 10 5 10 10 0 6 -4 10 -10 10 -5 0
-10 -4 -10 -10z"/>
<path d="M985 1870 c-3 -5 -1 -10 4 -10 6 0 11 5 11 10 0 6 -2 10 -4 10 -3 0
-8 -4 -11 -10z"/>
<path d="M540 1866 c0 -6 10 -20 22 -33 l21 -23 -29 -1 c-16 -1 -37 0 -48 1
-10 1 -15 -3 -12 -8 3 -6 0 -12 -9 -14 -10 -2 -12 -7 -5 -18 6 -9 13 -11 18
-5 10 14 25 16 61 5 19 -5 31 -5 31 1 0 5 5 9 11 9 7 0 9 -10 7 -24 -3 -14 1
-27 11 -33 23 -14 121 -16 121 -3 0 7 6 8 19 0 14 -7 22 -7 26 0 5 8 12 7 22
-2 9 -7 18 -12 20 -10 15 11 30 -1 25 -23 -3 -19 0 -25 14 -25 11 0 26 5 34
10 12 8 11 10 -7 10 -14 0 -23 6 -23 15 0 8 9 15 20 15 11 0 20 5 20 11 0 5 5
7 10 4 6 -4 43 -8 83 -10 75 -4 100 8 69 31 -14 10 -15 15 -4 25 10 11 12 11
12 0 0 -16 42 -10 57 9 7 8 13 23 13 33 0 10 8 17 20 17 31 0 24 20 -7 22 -16
0 -35 0 -43 -1 -8 -2 -27 -3 -42 -2 -23 0 -28 -4 -28 -23 0 -19 -4 -23 -19
-19 -12 3 -19 0 -18 -9 1 -31 -4 -48 -14 -48 -6 0 -9 9 -6 19 3 13 0 18 -7 15
-8 -3 -12 4 -11 18 1 13 8 22 14 20 6 -1 11 5 11 13 0 10 -9 14 -25 13 -19 -2
-24 -7 -19 -21 6 -18 5 -18 -15 0 -12 9 -21 24 -22 33 0 10 -2 11 -6 2 -2 -6
-9 -9 -15 -6 -5 4 -2 -5 7 -20 17 -25 17 -26 -6 -28 -13 0 -35 0 -47 1 -13 1
-21 -2 -18 -7 3 -6 -1 -12 -9 -16 -8 -3 -15 -15 -15 -26 0 -11 -4 -20 -10 -20
-13 0 -13 37 0 45 6 4 9 14 8 23 -2 13 4 16 35 13 26 -2 37 1 37 11 0 10 -15
14 -55 15 -52 1 -55 -1 -50 -21 3 -11 -3 -5 -14 14 -11 19 -20 28 -21 20 0
-13 -1 -13 -10 0 -5 8 -10 10 -10 5 0 -6 7 -21 16 -33 15 -21 14 -22 -13 -23
-15 -1 -36 -1 -45 0 -13 2 -16 -3 -12 -14 5 -11 18 -16 43 -15 56 3 61 1 61
-20 0 -18 -7 -20 -61 -20 -52 0 -62 3 -66 20 -3 11 -9 20 -12 20 -4 0 -7 10
-6 23 1 18 7 22 38 22 58 0 48 20 -11 23 -52 3 -53 2 -48 -20 4 -14 0 -10 -12
11 -13 24 -21 30 -25 20 -5 -12 -7 -12 -16 1 -6 8 -11 11 -11 6z m335 -95 c3
-5 1 -12 -5 -16 -5 -3 -10 1 -10 9 0 18 6 21 15 7z m75 -11 c0 -11 -7 -20 -15
-20 -17 0 -18 2 -9 24 9 23 24 20 24 -4z"/>
<path d="M638 1863 c7 -3 16 -2 19 1 4 3 -2 6 -13 5 -11 0 -14 -3 -6 -6z"/>
<path d="M778 1863 c7 -3 16 -2 19 1 4 3 -2 6 -13 5 -11 0 -14 -3 -6 -6z"/>
<path d="M1290 1852 c0 -6 -13 -8 -30 -6 -19 4 -36 0 -46 -10 -8 -9 -22 -16
-31 -16 -12 0 -13 -3 -4 -14 10 -11 8 -16 -8 -21 -12 -3 -21 -10 -21 -15 0
-17 17 -19 43 -5 22 11 26 11 31 -1 4 -11 11 -10 38 6 18 11 41 20 51 20 10 0
17 8 17 20 0 11 7 20 15 20 8 0 15 5 15 10 0 6 -6 10 -12 10 -7 0 -23 3 -35 6
-13 4 -23 2 -23 -4z m-70 -42 c0 -5 -2 -10 -4 -10 -3 0 -8 5 -11 10 -3 6 -1
10 4 10 6 0 11 -4 11 -10z"/>
<path d="M1470 1854 c1 -21 17 -33 38 -27 24 6 30 23 8 23 -8 0 -21 3 -30 6
-9 3 -16 2 -16 -2z"/>
<path d="M1400 1837 c0 -8 15 -14 36 -15 25 -2 35 1 32 10 -6 17 -68 22 -68 5z"/>
<path d="M1360 1820 c-13 -9 -12 -12 4 -25 11 -8 23 -15 28 -15 14 0 9 18 -8
24 -8 3 -12 10 -9 16 8 13 4 12 -15 0z"/>
<path d="M1821 1774 c13 -16 29 -19 29 -5 0 5 -9 11 -21 14 -16 4 -18 3 -8 -9z"/>
<path d="M1198 1733 c7 -3 16 -2 19 1 4 3 -2 6 -13 5 -11 0 -14 -3 -6 -6z"/>
<path d="M1490 1710 c-6 -4 -5 -13 3 -24 13 -17 14 -17 30 7 16 25 16 26 -4
24 -11 -1 -24 -4 -29 -7z"/>
<path d="M2175 1710 c-16 -7 -17 -9 -3 -9 9 -1 20 4 23 9 7 11 7 11 -20 0z"/>
<path d="M1988 1703 c6 -2 18 -2 25 0 6 3 1 5 -13 5 -14 0 -19 -2 -12 -5z"/>
<path d="M660 1692 c0 -7 -4 -11 -9 -8 -5 4 -20 1 -33 -4 -19 -9 -19 -10 -2
-7 17 3 19 0 16 -23 -2 -16 3 -31 12 -39 11 -9 16 -10 16 -2 0 6 7 11 15 11 8
0 15 -4 15 -10 0 -5 -5 -10 -12 -10 -9 0 -9 -3 0 -12 9 -9 7 -15 -6 -25 -16
-13 -15 -14 5 -8 13 4 33 -1 49 -11 20 -14 30 -15 44 -6 11 7 29 8 47 3 33 -9
225 -3 235 7 10 10 -2 52 -14 52 -6 0 -8 -6 -5 -14 3 -8 -1 -17 -9 -20 -21 -8
-21 -8 -27 14 -6 22 -54 28 -87 10 -13 -7 -21 -7 -25 0 -9 15 -28 12 -22 -4 3
-8 -2 -16 -14 -19 -14 -4 -19 0 -19 14 0 18 -25 25 -67 20 -7 -1 -11 10 -10
26 2 32 -30 46 -45 19 -12 -22 -25 -20 -31 4 -4 17 0 20 26 21 22 1 26 3 12 6
-11 3 -23 10 -27 17 -5 7 -8 6 -8 -4 0 -13 -1 -13 -10 0 -7 11 -10 11 -10 2z
m64 -98 c3 -8 2 -12 -4 -9 -6 3 -10 10 -10 16 0 14 7 11 14 -7z"/>
<path d="M830 1692 c0 -4 -12 -9 -27 -10 -41 -3 -41 -12 0 -12 26 0 37 4 37
15 0 8 -2 15 -5 15 -3 0 -5 -4 -5 -8z"/>
<path d="M1000 1690 c0 -5 -3 -9 -7 -8 -14 3 -73 -13 -78 -22 -9 -14 142 -7
157 8 9 9 8 12 -10 12 -12 0 -22 6 -22 13 0 8 -4 7 -10 -3 -6 -10 -10 -11 -10
-2 0 6 -4 12 -10 12 -5 0 -10 -4 -10 -10z"/>
<path d="M1180 1694 c0 -7 -6 -12 -12 -11 -34 1 -48 -4 -48 -18 0 -10 10 -15
34 -15 36 0 50 17 35 41 -5 8 -9 9 -9 3z"/>
<path d="M2130 1690 c0 -5 5 -10 10 -10 6 0 10 5 10 10 0 6 -4 10 -10 10 -5 0
-10 -4 -10 -10z"/>
<path d="M565 1639 c-4 -12 -2 -26 4 -32 8 -8 11 -7 11 4 1 11 4 10 14 -4 13
-16 14 -16 20 8 4 14 4 30 1 35 -11 18 -44 10 -50 -11z"/>
<path d="M770 1630 c0 -5 5 -10 10 -10 6 0 10 5 10 10 0 6 -4 10 -10 10 -5 0
-10 -4 -10 -10z"/>
<path d="M1156 1601 c-3 -5 1 -11 9 -14 9 -4 12 -1 8 9 -6 16 -10 17 -17 5z"/>
<path d="M1100 1590 c0 -5 9 -10 20 -10 11 0 20 5 20 10 0 6 -9 10 -20 10 -11
0 -20 -4 -20 -10z"/>
<path d="M520 1561 c0 -14 31 -19 58 -9 13 4 34 5 48 2 14 -4 24 -2 24 5 0 7
-24 11 -65 11 -36 0 -65 -4 -65 -9z"/>
<path d="M1100 1560 c0 -6 7 -10 15 -10 8 0 15 2 15 4 0 2 -7 6 -15 10 -8 3
-15 1 -15 -4z"/>
<path d="M1146 1545 c4 -8 10 -15 15 -15 5 0 9 7 9 15 0 8 -7 15 -15 15 -9 0
-12 -6 -9 -15z"/>
<path d="M1180 1550 c0 -5 7 -7 15 -4 8 4 15 8 15 10 0 2 -7 4 -15 4 -8 0 -15
-4 -15 -10z"/>
<path d="M1031 1507 c-6 -8 -7 -18 -3 -22 4 -5 2 -5 -4 -2 -16 9 -75 -3 -68
-14 3 -5 -6 -5 -20 1 -20 7 -26 6 -26 -4 0 -8 -7 -17 -16 -20 -31 -12 -2 -21
71 -22 70 0 74 1 80 24 3 13 1 30 -5 37 -8 10 -7 16 7 24 10 6 13 11 7 11 -6
0 -17 -6 -23 -13z"/>
<path d="M679 1503 c-1 -5 -1 -10 -1 -13 1 -6 -9 -7 -75 -10 -28 -2 -40 -6
-37 -15 3 -7 -5 -15 -17 -18 -41 -11 -9 -22 66 -22 70 -1 74 0 80 23 3 13 1
30 -4 36 -6 7 -8 16 -4 19 3 4 3 7 0 7 -4 0 -8 -3 -8 -7z"/>
<path d="M845 1500 c-3 -6 1 -7 9 -4 18 7 21 14 7 14 -6 0 -13 -4 -16 -10z"/>
<path d="M805 1480 c-11 -4 -32 -6 -47 -4 -18 2 -25 -2 -22 -10 3 -7 -5 -17
-18 -23 l-22 -10 22 -5 c12 -4 22 -2 22 4 0 7 5 7 13 0 12 -10 121 -13 111 -3
-2 2 1 10 7 17 26 32 -15 53 -66 34z"/>
<path d="M1210 1468 c0 -17 3 -19 9 -9 5 7 15 17 22 22 10 6 8 9 -8 9 -17 0
-23 -6 -23 -22z"/>
<path d="M1250 1457 c0 -9 -8 -17 -17 -17 -16 -1 -16 -2 1 -12 11 -6 31 -12
44 -14 l24 -2 -23 26 c-13 15 -25 29 -26 31 -2 2 -3 -3 -3 -12z"/>
<path d="M1056 1441 c-3 -5 1 -11 9 -15 15 -6 29 7 18 18 -9 9 -21 8 -27 -3z"/>
<path d="M1104 1431 c8 -12 70 -23 90 -15 29 11 6 24 -45 24 -28 0 -48 -4 -45
-9z"/>
<path d="M1269 1399 c-8 -4 -21 -6 -31 -3 -10 3 -23 -4 -33 -18 -15 -21 -16
-21 -13 -3 2 14 -3 21 -19 23 -16 2 -23 -2 -23 -12 0 -22 -27 -20 -33 2 -3 12
-5 11 -6 -6 -1 -20 -4 -21 -21 -12 -16 8 -25 7 -42 -4 -12 -9 -31 -13 -43 -10
-17 4 -21 0 -23 -27 -3 -38 -9 -49 -25 -49 -13 0 -16 38 -5 56 8 13 -2 64 -13
64 -5 0 -9 -10 -9 -21 0 -18 -2 -20 -16 -8 -13 10 -17 10 -23 0 -5 -7 -25 -13
-45 -13 -20 0 -34 -4 -31 -8 3 -4 -2 -11 -10 -14 -13 -4 -14 -10 -5 -26 9 -16
8 -20 -6 -20 -10 0 -15 -3 -11 -6 10 -10 88 -12 118 -4 16 5 31 5 34 1 7 -12
147 -7 169 5 12 7 17 18 13 28 -4 10 -1 16 9 16 20 0 30 -30 13 -41 -17 -11
-10 -12 66 -13 61 -1 91 13 82 37 -4 9 -6 9 -6 -1 -1 -7 -5 -10 -11 -7 -19 12
-10 22 17 21 19 -1 32 -9 40 -27 11 -22 18 -25 58 -23 66 4 71 13 26 42 -22
14 -38 28 -36 31 3 2 -4 9 -14 15 -69 41 -78 44 -92 35z m-229 -80 c0 -5 -5
-7 -12 -3 -8 5 -9 2 -5 -10 6 -14 3 -15 -13 -6 -28 15 -25 30 5 30 14 0 25 -5
25 -11z m163 5 c3 -3 3 -12 0 -20 -4 -11 -9 -12 -19 -3 -8 6 -14 15 -14 20 0
10 24 12 33 3z m161 -20 c3 -8 2 -12 -4 -9 -6 3 -10 10 -10 16 0 14 7 11 14
-7z"/>
<path d="M2483 1265 c-37 -16 -40 -23 -17 -51 14 -18 15 -18 4 4 -12 24 -5 46
8 25 9 -15 67 -10 66 6 -2 27 -5 31 -16 31 -7 -1 -28 -7 -45 -15z"/>
<path d="M1882 1225 c2 -23 18 -37 18 -16 0 5 3 16 6 25 4 11 1 16 -10 16 -11
0 -15 -8 -14 -25z"/>
<path d="M2400 1240 c0 -5 5 -10 10 -10 6 0 10 5 10 10 0 6 -4 10 -10 10 -5 0
-10 -4 -10 -10z"/>
<path d="M1963 1213 c-13 -2 -23 -8 -23 -12 0 -4 -15 -8 -32 -9 -18 -2 -35 -7
-36 -12 -2 -6 -8 -8 -13 -4 -15 9 -22 -25 -9 -41 7 -9 23 -13 39 -10 14 2 41
5 59 7 23 2 32 7 32 20 0 10 7 18 15 18 8 0 15 7 15 16 0 8 5 12 10 9 6 -3 10
1 10 9 0 16 -19 18 -67 9z"/>
<path d="M2143 1212 c-18 -2 -33 -7 -33 -11 0 -7 -15 -11 -52 -12 -10 0 -18
-5 -18 -10 0 -6 -4 -7 -10 -4 -13 8 -13 -35 0 -55 6 -10 13 -11 18 -5 10 14
65 12 70 -3 2 -7 10 -12 18 -12 8 0 14 -5 14 -12 0 -6 3 -8 7 -4 5 4 -1 14
-11 22 -17 12 -18 14 -3 14 11 0 17 8 17 24 0 13 5 26 11 28 6 2 9 13 7 23 -2
16 -10 19 -35 17z"/>
<path d="M2220 1208 c0 -4 7 -8 15 -8 8 0 15 4 15 8 0 5 -7 9 -15 9 -8 0 -15
-4 -15 -9z"/>
<path d="M2528 1213 c7 -3 16 -2 19 1 4 3 -2 6 -13 5 -11 0 -14 -3 -6 -6z"/>
<path d="M531 1154 c-7 -8 -10 -18 -6 -22 4 -4 10 -1 12 6 3 6 11 12 18 12 8
0 17 5 20 10 10 16 -29 11 -44 -6z"/>
<path d="M640 1148 c-16 -7 -20 -12 -12 -15 8 -3 21 2 30 11 19 18 17 19 -18
4z"/>
<path d="M490 1140 c-13 -8 -12 -10 3 -10 9 0 17 5 17 10 0 12 -1 12 -20 0z"/>
<path d="M470 1087 c0 -10 8 -17 18 -17 9 0 13 4 7 8 -5 4 -13 11 -17 16 -5 5
-8 2 -8 -7z"/>
<path d="M820 1084 c0 -7 15 -14 34 -16 30 -3 32 -2 23 14 -12 19 -57 21 -57
2z"/>
<path d="M780 1080 c0 -5 4 -10 9 -10 6 0 13 5 16 10 3 6 -1 10 -9 10 -9 0
-16 -4 -16 -10z"/>
<path d="M738 1073 c7 -3 16 -2 19 1 4 3 -2 6 -13 5 -11 0 -14 -3 -6 -6z"/>
<path d="M638 973 c7 -3 16 -2 19 1 4 3 -2 6 -13 5 -11 0 -14 -3 -6 -6z"/>
<path d="M1158 973 c7 -3 16 -2 19 1 4 3 -2 6 -13 5 -11 0 -14 -3 -6 -6z"/>
<path d="M1093 948 c-19 -5 -33 -15 -33 -24 0 -9 -5 -14 -12 -12 -6 2 -20 -4
-31 -15 -10 -10 -22 -16 -25 -12 -4 3 -2 9 3 13 12 8 13 37 2 48 -4 4 -7 -2
-7 -14 0 -16 -4 -20 -17 -15 -12 5 -15 2 -10 -10 4 -11 1 -17 -8 -17 -8 0 -15
5 -15 10 0 6 -11 10 -24 10 -14 0 -28 -4 -31 -10 -3 -5 -31 -10 -62 -10 -62 0
-125 -18 -119 -35 2 -5 9 -9 15 -7 6 1 19 3 29 5 9 1 23 6 29 10 7 4 21 4 30
-1 10 -5 27 -6 38 -1 32 12 38 10 32 -12 -4 -17 -3 -19 6 -10 6 6 23 11 37 11
14 0 31 5 38 12 8 8 15 8 27 -2 10 -8 15 -9 15 -1 0 11 41 11 50 -1 3 -4 17 2
30 12 20 16 21 20 8 20 -11 0 -15 5 -12 15 9 22 23 18 30 -9 5 -20 12 -24 42
-23 21 1 43 -3 51 -7 9 -6 12 -5 9 5 -2 7 -19 17 -37 21 -20 6 -29 13 -25 20
6 9 9 9 12 0 7 -22 49 -14 55 10 4 12 4 24 1 27 -9 9 -87 8 -121 -1z"/>
<path d="M651 924 c0 -11 3 -14 6 -6 3 7 2 16 -1 19 -3 4 -6 -2 -5 -13z"/>
<path d="M775 920 c3 -5 10 -10 16 -10 5 0 9 5 9 10 0 6 -7 10 -16 10 -8 0
-12 -4 -9 -10z"/>
<path d="M2010 886 c-19 -19 -10 -25 21 -14 27 9 33 8 41 -7 8 -13 12 -14 18
-5 5 7 27 13 49 13 24 0 41 5 41 11 0 14 -157 15 -170 2z"/>
<path d="M2200 890 c0 -5 7 -10 16 -10 8 0 12 5 9 10 -3 6 -10 10 -16 10 -5 0
-9 -4 -9 -10z"/>
<path d="M2293 893 c-39 -7 -25 -19 17 -15 22 2 40 8 40 13 0 9 -17 10 -57 2z"/>
<path d="M2376 892 c-3 -6 -1 -14 5 -17 15 -10 25 3 12 16 -7 7 -13 7 -17 1z"/>
<path d="M2446 891 c-33 -5 -37 -8 -24 -18 11 -10 23 -10 47 -2 24 8 35 8 46
-1 12 -10 15 -9 15 9 0 23 -9 24 -84 12z"/>
<path d="M1232 879 c2 -6 8 -10 13 -10 5 0 11 4 13 10 2 6 -4 11 -13 11 -9 0
-15 -5 -13 -11z"/>
<path d="M1335 881 c-3 -5 -1 -12 5 -16 5 -3 10 1 10 9 0 18 -6 21 -15 7z"/>
<path d="M2540 886 c0 -2 7 -6 15 -10 8 -3 15 -1 15 4 0 6 -7 10 -15 10 -8 0
-15 -2 -15 -4z"/>
<path d="M2161 831 c-7 -5 -10 -14 -7 -20 4 -6 11 -9 15 -7 10 6 24 -5 37 -29
13 -24 97 -34 120 -14 10 8 14 8 14 0 0 -6 8 -11 18 -11 14 0 15 2 2 10 -12 8
-12 10 -1 10 11 0 11 3 1 15 -9 11 -16 12 -20 5 -4 -6 -15 -1 -28 14 -14 17
-17 26 -9 30 7 2 -19 5 -58 5 -38 0 -76 -3 -84 -8z m139 -46 c0 -18 -16 -20
-23 -2 -3 7 -6 5 -6 -5 -1 -20 -16 -24 -26 -8 -3 6 -1 10 4 10 6 0 11 9 11 20
0 18 3 19 20 10 11 -6 20 -17 20 -25z"/>
<path d="M993 747 c-2 -4 3 -10 11 -13 9 -3 16 -13 16 -21 0 -12 -3 -13 -13
-4 -11 8 -16 5 -25 -14 -11 -24 -10 -25 24 -25 22 0 37 6 41 15 5 14 8 14 24
-1 11 -10 22 -14 27 -9 4 4 1 10 -5 12 -15 5 -17 33 -3 33 6 0 10 -6 10 -14 0
-7 6 -19 13 -25 11 -8 17 -3 30 25 24 49 7 54 -93 30 -14 -4 -19 -4 -12 0 6 3
12 9 12 12 0 10 -51 9 -57 -1z"/>
<path d="M1930 750 c0 -5 7 -7 15 -4 8 4 15 8 15 10 0 2 -7 4 -15 4 -8 0 -15
-4 -15 -10z"/>
<path d="M978 623 c7 -3 16 -2 19 1 4 3 -2 6 -13 5 -11 0 -14 -3 -6 -6z"/>
<path d="M2575 1460 c-3 -5 1 -10 10 -10 9 0 13 5 10 10 -3 6 -8 10 -10 10 -2
0 -7 -4 -10 -10z"/>
</g>
</svg>
